<?xml version="1.0" encoding="utf-8"?>
<!-- Generator: Adobe Illustrator 14.0.0, SVG Export Plug-In . SVG Version: 6.00 Build 43363)  -->
<!DOCTYPE svg PUBLIC "-//W3C//DTD SVG 1.0//EN" "http://www.w3.org/TR/2001/REC-SVG-20010904/DTD/svg10.dtd">
<svg version="1.0" id="Layer_1" xmlns="http://www.w3.org/2000/svg" xmlns:xlink="http://www.w3.org/1999/xlink" x="0px" y="0px"
	 width="66.566px" height="100px" viewBox="0 0 66.566 100" enable-background="new 0 0 66.566 100" xml:space="preserve">
<path d="M65.512,0C60.556,0,55.6,0,50.643,0c-9.672,0-19.344,0-29.017,0C15.033,0,8.439,0,1.846,0C1.582,0,1.318,0,1.054,0
	C0.727,0,0.479,0.123,0.309,0.309C0.123,0.479,0,0.727,0,1.054C0,4.61,0,8.166,0,11.721c0,8.415,0,16.829,0,25.243
	c0,9.893,0,19.785,0,29.678c0,7.992,0,15.983,0,23.976c0,2.776,0,5.553,0,8.328C0,99.521,0.479,100,1.054,100
	c4.957,0,9.913,0,14.869,0c9.672,0,19.345,0,29.017,0c6.594,0,13.187,0,19.78,0c0.264,0,0.527,0,0.791,0
	c0.575,0,1.055-0.479,1.055-1.055c0-3.556,0-7.111,0-10.667c0-8.414,0-16.828,0-25.242c0-9.893,0-19.785,0-29.678
	c0-7.992,0-15.983,0-23.975c0-2.776,0-5.553,0-8.329C66.566,0.479,66.087,0,65.512,0z M8.735,11.897c0-1.054,0-2.108,0-3.163
	c5.465,0,10.929,0,16.394,0c9.212,0,18.425,0,27.638,0c1.688,0,3.377,0,5.064,0c0,7.179,0,14.357,0,21.536c0,1.054,0,2.108,0,3.163
	c-5.464,0-10.929,0-16.394,0c-9.212,0-18.425,0-27.638,0c-1.688,0-3.376,0-5.064,0C8.735,26.255,8.735,19.076,8.735,11.897z
	 M47.289,52.711c0-3.514,0-7.028,0-10.542c3.515,0,7.028,0,10.542,0c0,3.514,0,7.028,0,10.542
	C54.317,52.711,50.804,52.711,47.289,52.711z M57.831,61.445c0,3.515,0,7.028,0,10.543c-3.514,0-7.027,0-10.542,0
	c0-3.515,0-7.028,0-10.543C50.804,61.445,54.317,61.445,57.831,61.445z M19.277,80.723c0,3.515,0,7.028,0,10.542
	c-3.514,0-7.028,0-10.542,0c0-3.514,0-7.027,0-10.542C12.249,80.723,15.763,80.723,19.277,80.723z M8.735,52.711
	c0-3.514,0-7.028,0-10.542c3.514,0,7.028,0,10.542,0c0,3.514,0,7.028,0,10.542C15.763,52.711,12.249,52.711,8.735,52.711z
	 M19.277,61.445c0,3.515,0,7.028,0,10.543c-3.514,0-7.028,0-10.542,0c0-3.515,0-7.028,0-10.543
	C12.249,61.445,15.763,61.445,19.277,61.445z M28.012,52.711c0-3.514,0-7.028,0-10.542c3.514,0,7.028,0,10.542,0
	c0,3.514,0,7.028,0,10.542C35.04,52.711,31.526,52.711,28.012,52.711z M38.555,71.988c-3.515,0-7.028,0-10.542,0
	c0-3.515,0-7.028,0-10.543c3.514,0,7.028,0,10.542,0C38.555,64.96,38.555,68.474,38.555,71.988z M38.555,80.723
	c0,3.515,0,7.028,0,10.542c-3.515,0-7.028,0-10.542,0c0-3.514,0-7.027,0-10.542C31.526,80.723,35.04,80.723,38.555,80.723z
	 M57.831,91.265c-3.514,0-7.027,0-10.542,0c0-3.514,0-7.027,0-10.542c3.515,0,7.028,0,10.542,0
	C57.831,84.237,57.831,87.751,57.831,91.265z"/>
</svg>
